<svg xmlns="http://www.w3.org/2000/svg" viewBox="0 0 1100 280" font-family="'Segoe UI','PingFang SC','Microsoft YaHei',sans-serif">
  <defs>
    <marker id="ta" markerWidth="6" markerHeight="4" refX="6" refY="2" orient="auto">
      <polygon points="0,0 6,2 0,4" fill="#868e96"/>
    </marker>
  </defs>

  <!-- Root: DisplayContent -->
  <rect x="480" y="5" width="140" height="26" rx="3" fill="#eef1f5" stroke="#4a7fb5" stroke-width="1.2"/>
  <text x="550" y="22" font-size="10" fill="#343a40" font-weight="600" text-anchor="middle">DisplayContent</text>

  <!-- Level 1 children -->
  <!-- WindowedMagnification:0:31 -->
  <rect x="200" y="50" width="185" height="22" rx="3" fill="white" stroke="#4a7fb5" stroke-width="1"/>
  <text x="292" y="65" font-size="9" fill="#343a40" text-anchor="middle">WindowedMagnification:0:31</text>
  <line x1="500" y1="31" x2="292" y2="50" stroke="#868e96" stroke-width="0.8" marker-end="url(#ta)"/>

  <!-- HideDisplayCutout:32:35 -->
  <rect x="680" y="50" width="160" height="22" rx="3" fill="white" stroke="#adb5bd" stroke-width="1"/>
  <text x="760" y="65" font-size="9" fill="#343a40" text-anchor="middle">HideDisplayCutout:32:35</text>
  <line x1="580" y1="31" x2="760" y2="50" stroke="#868e96" stroke-width="0.8" marker-end="url(#ta)"/>

  <!-- Leaf:36:36 -->
  <rect x="880" y="50" width="90" height="22" rx="3" fill="#f8f9fa" stroke="#ced4da" stroke-width="1"/>
  <text x="925" y="65" font-size="9" fill="#868e96" text-anchor="middle">Leaf:36:36</text>
  <line x1="610" y1="31" x2="925" y2="50" stroke="#868e96" stroke-width="0.8" marker-end="url(#ta)"/>

  <!-- Level 2 under WindowedMagnification -->
  <!-- HideDisplayCutout:0:14 -->
  <rect x="20" y="95" width="155" height="22" rx="3" fill="white" stroke="#adb5bd" stroke-width="1"/>
  <text x="97" y="110" font-size="8" fill="#343a40" text-anchor="middle">HideDisplayCutout:0:14</text>
  <line x1="240" y1="72" x2="97" y2="95" stroke="#868e96" stroke-width="0.8" marker-end="url(#ta)"/>

  <!-- OneHanded:15:15 -->
  <rect x="190" y="95" width="100" height="22" rx="3" fill="white" stroke="#adb5bd" stroke-width="1"/>
  <text x="240" y="110" font-size="8" fill="#343a40" text-anchor="middle">OH:15:15</text>
  <line x1="270" y1="72" x2="240" y2="95" stroke="#868e96" stroke-width="0.8" marker-end="url(#ta)"/>

  <!-- HideDisplayCutout:16:16 -->
  <rect x="300" y="95" width="65" height="22" rx="3" fill="white" stroke="#adb5bd" stroke-width="1"/>
  <text x="332" y="110" font-size="7" fill="#343a40" text-anchor="middle">HDC:16</text>

  <!-- OneHanded:17:17 -->
  <rect x="375" y="95" width="65" height="22" rx="3" fill="white" stroke="#adb5bd" stroke-width="1"/>
  <text x="407" y="110" font-size="7" fill="#343a40" text-anchor="middle">OH:17</text>

  <!-- Leaf:24:25 -->
  <rect x="450" y="95" width="65" height="22" rx="3" fill="#f8f9fa" stroke="#ced4da" stroke-width="1"/>
  <text x="482" y="110" font-size="7" fill="#868e96" text-anchor="middle">24:25</text>

  <!-- HideDisplayCutout:18:23 -->
  <rect x="525" y="95" width="65" height="22" rx="3" fill="white" stroke="#adb5bd" stroke-width="1"/>
  <text x="557" y="110" font-size="7" fill="#343a40" text-anchor="middle">HDC:18:23</text>

  <!-- HideDisplayCutout:26:31 -->
  <rect x="600" y="95" width="65" height="22" rx="3" fill="white" stroke="#adb5bd" stroke-width="1"/>
  <text x="632" y="110" font-size="7" fill="#343a40" text-anchor="middle">HDC:26:31</text>

  <line x1="300" y1="72" x2="332" y2="95" stroke="#868e96" stroke-width="0.6"/>
  <line x1="320" y1="72" x2="407" y2="95" stroke="#868e96" stroke-width="0.6"/>
  <line x1="340" y1="72" x2="482" y2="95" stroke="#868e96" stroke-width="0.6"/>
  <line x1="350" y1="72" x2="557" y2="95" stroke="#868e96" stroke-width="0.6"/>
  <line x1="360" y1="72" x2="632" y2="95" stroke="#868e96" stroke-width="0.6"/>

  <!-- Level 3 under HideDisplayCutout:0:14 -->
  <rect x="20" y="140" width="155" height="22" rx="3" fill="white" stroke="#2e7d32" stroke-width="1"/>
  <text x="97" y="155" font-size="8" fill="#2e7d32" text-anchor="middle">OneHanded:0:14</text>
  <line x1="97" y1="117" x2="97" y2="140" stroke="#868e96" stroke-width="0.8" marker-end="url(#ta)"/>

  <!-- Level 4 under OneHanded:0:14 -->
  <!-- FullscreenMagnification:0:12 -->
  <rect x="10" y="185" width="115" height="22" rx="3" fill="white" stroke="#adb5bd" stroke-width="1"/>
  <text x="67" y="200" font-size="7" fill="#343a40" text-anchor="middle">FullMag:0:12</text>
  <line x1="70" y1="162" x2="67" y2="185" stroke="#868e96" stroke-width="0.6"/>

  <!-- ImePlaceholder:13:14 -->
  <rect x="135" y="185" width="100" height="22" rx="3" fill="#fff0f0" stroke="#e07070" stroke-width="1"/>
  <text x="185" y="200" font-size="7" fill="#c0392b" text-anchor="middle">ImePlaceholder:13:14</text>
  <line x1="120" y1="162" x2="185" y2="185" stroke="#868e96" stroke-width="0.6"/>

  <!-- Level 5 leaves -->
  <!-- Leaf:0:1 (wallpaper) -->
  <rect x="10" y="225" width="45" height="20" rx="2" fill="#f8f9fa" stroke="#ced4da" stroke-width="0.8"/>
  <text x="32" y="239" font-size="7" fill="#868e96" text-anchor="middle">0:1</text>
  <line x1="40" y1="207" x2="32" y2="225" stroke="#868e96" stroke-width="0.5"/>

  <!-- DefaultTaskDisplayArea -->
  <rect x="60" y="225" width="55" height="20" rx="2" fill="#eef5f1" stroke="#2e7d32" stroke-width="1"/>
  <text x="87" y="239" font-size="6" fill="#2e7d32" text-anchor="middle">DTDA</text>
  <line x1="55" y1="207" x2="87" y2="225" stroke="#868e96" stroke-width="0.5"/>

  <!-- Leaf:3:12 -->
  <rect x="120" y="225" width="45" height="20" rx="2" fill="#f8f9fa" stroke="#ced4da" stroke-width="0.8"/>
  <text x="142" y="239" font-size="7" fill="#868e96" text-anchor="middle">3:12</text>
  <line x1="80" y1="207" x2="142" y2="225" stroke="#868e96" stroke-width="0.5"/>

  <!-- ImeContainer -->
  <rect x="150" y="225" width="70" height="20" rx="2" fill="#fff0f0" stroke="#e07070" stroke-width="0.8"/>
  <text x="185" y="239" font-size="7" fill="#c0392b" text-anchor="middle">ImeContainer</text>
  <line x1="185" y1="207" x2="185" y2="225" stroke="#868e96" stroke-width="0.5"/>

  <!-- Legend -->
  <rect x="10" y="258" width="10" height="10" rx="1" fill="#eef5f1" stroke="#2e7d32" stroke-width="0.8"/>
  <text x="25" y="267" font-size="7" fill="#868e96">TaskDisplayArea</text>
  <rect x="110" y="258" width="10" height="10" rx="1" fill="#fff0f0" stroke="#e07070" stroke-width="0.8"/>
  <text x="125" y="267" font-size="7" fill="#868e96">IME 相关</text>
  <rect x="200" y="258" width="10" height="10" rx="1" fill="#f8f9fa" stroke="#ced4da" stroke-width="0.8"/>
  <text x="215" y="267" font-size="7" fill="#868e96">Leaf (叶子节点)</text>
  <text x="310" y="267" font-size="7" fill="#868e96">DTDA = DefaultTaskDisplayArea | OH = OneHanded | HDC = HideDisplayCutout | FullMag = FullscreenMagnification</text>
</svg>
